<?xml version="1.0" standalone="no"?>
<!DOCTYPE svg PUBLIC "-//W3C//DTD SVG 1.1//EN" "http://www.w3.org/Graphics/SVG/1.1/DTD/svg11.dtd" >
<!--
2013-9-30: Created.
-->
<svg>
<metadata>
Created by iconfont
</metadata>
<defs>

<font id="zmjd-icon" horiz-adv-x="1024" >
  <font-face
    font-family="zmjd-icon"
    font-weight="500"
    font-stretch="normal"
    units-per-em="1024"
    ascent="896"
    descent="-128"
  />
    <missing-glyph />
    
    <glyph glyph-name="warning" unicode="&#59077;" d="M485.1456 730.69568c11.70432 21.067776 42.00448 21.067776 53.7088 0l368.64-663.552C918.870016 46.665727999999945 904.064 21.50400000000002 880.64 21.50400000000002H143.36c-23.424 0-38.230016 25.162752-26.8544 45.63968zM512 652.519424L195.56864 82.94399999999996h632.861696L512 652.520448zM512 212.99199999999996c16.966656 0 30.72-13.753344 30.72-30.72 0-16.966656-13.753344-30.72-30.72-30.72-16.966656 0-30.72 13.753344-30.72 30.72 0 16.966656 13.753344 30.72 30.72 30.72z m38.37952 262.144a6.144 6.144 0 0 0 6.121472-6.653952l-19.456-233.472A6.144 6.144 0 0 0 530.92352 229.37599999999998h-37.844992a6.144 6.144 0 0 0-6.12352 5.634048l-19.456 233.472a6.144 6.144 0 0 0 6.12352 6.653952h76.756992z"  horiz-adv-x="1024" />

    
    <glyph glyph-name="xianshitui" unicode="&#59072;" d="M512 722.944c197.9392 0 358.4-160.4608 358.4-358.4 0-87.84896-31.606784-168.316928-84.0704-230.649856l75.106304-75.341824c11.978752-12.015616 11.948032-31.466496-0.067584-43.444224-11.895808-11.85792-31.0784-11.947008-43.082752-0.288768l-0.361472 0.356352-75.01824 75.25376C680.53504 37.8368 599.968768 6.144 512 6.144c-87.84896 0-168.316928 31.606784-230.649856 84.0704l-75.341824-75.106304c-12.015616-11.978752-31.466496-11.948032-43.444224 0.067584-11.85792 11.895808-11.947008 31.0784-0.289792 43.082752l0.357376 0.361472 75.25376 75.01824C185.2928 196.00896 153.6 276.575232 153.6 364.544c0 197.9392 160.4608 358.4 358.4 358.4z m0-61.44c-164.006912 0-296.96-132.953088-296.96-296.96s132.953088-296.96 296.96-296.96 296.96 132.953088 296.96 296.96-132.953088 296.96-296.96 296.96z m-91.648-249.20064V252.3136c9.03168-4.3008 19.78368-11.18208 34.4064-18.49344 28.81536-14.19264 68.38272-17.2032 113.9712-17.2032 43.43808 0 109.24032 3.44064 150.95808 9.46176-5.59104-12.9024-12.9024-36.12672-13.76256-50.31936-28.38528-1.72032-97.19808-4.3008-138.91584-4.3008-51.17952 0-88.59648 5.16096-120.85248 21.07392-19.78368 9.89184-33.97632 21.504-45.1584 21.504-14.62272 0-36.98688-24.94464-56.34048-49.4592l-31.39584 43.86816c19.3536 18.06336 39.56736 32.68608 58.0608 40.8576V364.56448h-50.31936v47.73888h99.34848z m254.60736 137.6256v-165.5808l33.97632-27.52512c-19.3536-12.9024-40.8576-26.23488-59.35104-36.98688 20.64384-18.06336 39.56736-35.69664 51.6096-50.74944l-37.41696-29.24544c-23.6544 31.82592-77.4144 79.5648-121.28256 112.68096l33.97632 24.94464c11.90912-8.337408 24.552448-18.14016 37.252096-28.055552l3.175424-2.480128c15.0528 9.89184 31.39584 22.36416 43.86816 33.54624h-141.9264v-82.14528L581.632 309.94432c-0.43008-12.9024 0.86016-31.82592 2.58048-42.57792-89.02656-19.78368-104.93952-24.08448-115.69152-30.1056-3.44064 10.752-14.62272 30.53568-22.36416 39.13728 9.46176 5.59104 20.64384 18.06336 20.64384 38.27712V549.92896h208.15872z m-49.4592-102.78912H518.84032v-25.8048h106.65984v25.8048zM364.4416 551.2192c23.6544-19.3536 52.89984-47.73888 66.23232-67.95264l-41.28768-30.96576c-12.04224 19.78368-39.56736 49.88928-63.22176 71.39328z m261.05856-42.14784H518.84032v-24.94464h106.65984v24.94464zM287.40608 752.24064c11.877376-11.876352 11.99616-31.058944 0.356352-43.082752l-0.356352-0.361472L165.761024 587.15136c-11.997184-11.997184-31.44704-11.997184-43.444224 0-11.877376 11.876352-11.99616 31.058944-0.356352 43.082752l0.356352 0.361472L243.961856 752.24064c11.99616 11.997184 31.44704 11.997184 43.444224 0z m449.31072 0c11.997184 11.997184 31.44704 11.997184 43.444224 0L901.80608 630.595584l0.356352-0.361472c11.639808-12.023808 11.52-31.2064-0.356352-43.082752-11.997184-11.997184-31.44704-11.997184-43.444224 0L736.7168 708.796416l-0.356352 0.361472c-11.639808 12.023808-11.52 31.2064 0.356352 43.082752z"  horiz-adv-x="1024" />

    
    <glyph glyph-name="daoqitui" unicode="&#59073;" d="M672.768 773.12c16.796672 0 30.444544-13.479936 30.715904-30.212096L703.488 742.4v-51.2h44.032c83.982336 0 152.22272-67.39968 153.57952-151.06048L901.12 537.6v-389.12c0-84.831232-68.768768-153.6-153.6-153.6H276.48c-84.831232 0-153.6 68.768768-153.6 153.6V537.6c0 84.831232 68.768768 153.6 153.6 153.6l51.712 0.001024V742.4c0 16.966656 13.753344 30.72 30.72 30.72 16.796672 0 30.444544-13.479936 30.715904-30.212096l0.004096-0.507904v-51.198976L642.048 691.2v51.2c0 16.966656 13.753344 30.72 30.72 30.72zM328.192 629.761024L276.48 629.76c-50.898944 0-92.16-41.261056-92.16-92.16v-389.12c0-50.898944 41.261056-92.16 92.16-92.16h471.04c50.898944 0 92.16 41.261056 92.16 92.16V537.6c0 50.898944-41.261056 92.16-92.16 92.16h-44.032v-50.176c0-16.966656-13.753344-30.72-30.72-30.72-16.796672 0-30.444544 13.479936-30.715904 30.212096L642.048 579.584v50.176l-252.416 0.001024V579.584c0-16.966656-13.753344-30.72-30.72-30.72-16.796672 0-30.444544 13.479936-30.715904 30.212096L328.192 579.584v50.177024z m92.16-270.705664V199.0656c9.03168-4.3008 19.78368-11.18208 34.4064-18.49344 28.81536-14.19264 68.38272-17.2032 113.9712-17.2032 43.43808 0 109.24032 3.44064 150.95808 9.46176-5.59104-12.9024-12.9024-36.12672-13.76256-50.31936-28.38528-1.72032-97.19808-4.3008-138.91584-4.3008-51.17952 0-88.59648 5.16096-120.85248 21.07392-19.78368 9.89184-33.97632 21.504-45.1584 21.504-14.62272 0-36.98688-24.94464-56.34048-49.4592l-31.39584 43.86816c19.3536 18.06336 39.56736 32.68608 58.0608 40.8576V311.31648h-50.31936v47.73888h99.34848z m254.60736 137.6256v-165.5808l33.97632-27.52512c-19.3536-12.9024-40.8576-26.23488-59.35104-36.98688 20.64384-18.06336 39.56736-35.69664 51.6096-50.74944l-37.41696-29.24544c-23.6544 31.82592-77.4144 79.5648-121.28256 112.68096l33.97632 24.94464c12.9024-9.03168 26.66496-19.78368 40.42752-30.53568 15.0528 9.89184 31.39584 22.36416 43.86816 33.54624h-141.9264v-82.14528L581.632 256.69632c-0.43008-12.9024 0.86016-31.82592 2.58048-42.57792-89.02656-19.78368-104.93952-24.08448-115.69152-30.1056-3.44064 10.752-14.62272 30.53568-22.36416 39.13728 9.46176 5.59104 20.64384 18.06336 20.64384 38.27712V496.68096h208.15872z m-49.4592-102.78912H518.84032v-25.8048h106.65984v25.8048zM364.4416 497.9712c23.6544-19.3536 52.89984-47.73888 66.23232-67.95264l-41.28768-30.96576c-12.04224 19.78368-39.56736 49.88928-63.22176 71.39328z m261.05856-42.14784H518.84032v-24.94464h106.65984v24.94464z"  horiz-adv-x="1024" />

    
    <glyph glyph-name="buketui" unicode="&#59074;" d="M522.24 783.36c214.904832 0 389.12-174.215168 389.12-389.12v-20.48c0-214.904832-174.215168-389.12-389.12-389.12h-20.48c-214.904832 0-389.12 174.215168-389.12 389.12v20.48c0 214.904832 174.215168 389.12 389.12 389.12z m0-61.44h-20.48c-180.972544 0-327.68-146.707456-327.68-327.68v-20.48c0-111.7696 55.958528-210.46784 141.387776-269.60896l16.83968 29.165568c8.48384 14.6944 27.271168 19.728384 41.964544 11.244544 14.54592-8.397824 19.625984-26.896384 11.4944-41.522176l-0.249856-0.442368-16.47104-28.52864C409.616384 56.077312 454.520832 46.08 501.76 46.08h20.48c180.972544 0 327.68 146.707456 327.68 327.68v20.48c0 111.449088-55.63904 209.903616-140.65664 269.101056l-16.54784-28.657664c-8.482816-14.6944-27.270144-19.72736-41.96352-11.244544-14.54592 8.397824-19.625984 26.896384-11.4944 41.5232l0.249856 0.44032 16.26112 28.166144C614.985728 711.789568 569.795584 721.92 522.24 721.92z m-101.888-290.16064V271.7696c9.03168-4.3008 19.78368-11.18208 34.4064-18.49344 28.81536-14.19264 68.38272-17.2032 113.9712-17.2032 43.43808 0 109.24032 3.44064 150.95808 9.46176-5.59104-12.9024-12.9024-36.12672-13.76256-50.31936-28.38528-1.72032-97.19808-4.3008-138.91584-4.3008-51.17952 0-88.59648 5.16096-120.85248 21.07392-19.78368 9.89184-33.97632 21.504-45.1584 21.504-14.62272 0-36.98688-24.94464-56.34048-49.4592l-31.39584 43.86816c19.3536 18.06336 39.56736 32.68608 58.0608 40.8576V384.02048h-50.31936v47.73888h99.34848z m254.60736 137.6256v-165.5808l33.97632-27.52512c-19.3536-12.9024-40.8576-26.23488-59.35104-36.98688 20.64384-18.06336 39.56736-35.69664 51.6096-50.74944l-37.41696-29.24544c-23.6544 31.82592-77.4144 79.5648-121.28256 112.68096l33.97632 24.94464c12.9024-9.03168 26.66496-19.78368 40.42752-30.53568 15.0528 9.89184 31.39584 22.36416 43.86816 33.54624h-141.9264v-82.14528L581.632 329.40032c-0.43008-12.9024 0.86016-31.82592 2.58048-42.57792-89.02656-19.78368-104.93952-24.08448-115.69152-30.1056-3.44064 10.752-14.62272 30.53568-22.36416 39.13728 9.46176 5.59104 20.64384 18.06336 20.64384 38.27712V569.38496h208.15872z m-49.4592-102.78912H518.84032v-25.8048h106.65984v25.8048zM364.4416 570.6752c23.6544-19.3536 52.89984-47.73888 66.23232-67.95264l-41.28768-30.96576c-12.04224 19.78368-39.56736 49.88928-63.22176 71.39328z m261.05856-42.14784H518.84032v-24.94464h106.65984v24.94464z"  horiz-adv-x="1024" />

    
    <glyph glyph-name="wuxuyuyue" unicode="&#59075;" d="M672.768 773.12c16.796672 0 30.444544-13.479936 30.715904-30.212096L703.488 742.4v-51.2h44.032c83.982336 0 152.22272-67.39968 153.57952-151.06048L901.12 537.6v-389.12c0-84.831232-68.768768-153.6-153.6-153.6H276.48c-84.831232 0-153.6 68.768768-153.6 153.6V537.6c0 84.831232 68.768768 153.6 153.6 153.6l51.712 0.001024V742.4c0 16.966656 13.753344 30.72 30.72 30.72 16.796672 0 30.444544-13.479936 30.715904-30.212096l0.004096-0.507904v-51.198976L642.048 691.2v51.2c0 16.966656 13.753344 30.72 30.72 30.72zM328.192 629.761024L276.48 629.76c-50.898944 0-92.16-41.261056-92.16-92.16v-389.12c0-50.898944 41.261056-92.16 92.16-92.16h471.04c50.898944 0 92.16 41.261056 92.16 92.16V537.6c0 50.898944-41.261056 92.16-92.16 92.16h-44.032v-50.176c0-16.966656-13.753344-30.72-30.72-30.72-16.796672 0-30.444544 13.479936-30.715904 30.212096L642.048 579.584v50.176l-252.416 0.001024V579.584c0-16.966656-13.753344-30.72-30.72-30.72-16.796672 0-30.444544 13.479936-30.715904 30.212096L328.192 579.584v50.177024z m390.068224-164.866048c11.75552-11.99616 11.681792-31.178752-0.077824-43.083776l-0.359424-0.3584-250.755072-245.76c-11.84256-11.60704-30.728192-11.70432-42.689536-0.3072l-0.359424 0.349184-117.884928 115.99872c-12.09344 11.899904-12.250112 31.350784-0.351232 43.4432 11.78112 11.972608 30.961664 12.24704 43.078656 0.704512l0.364544-0.35328 96.381952-94.839808 229.209088 224.644096c12.116992 11.875328 31.566848 11.679744 43.4432-0.437248z"  horiz-adv-x="1024" />

    
    <glyph glyph-name="xuyuyue" unicode="&#59076;" d="M672.768 773.12c16.796672 0 30.444544-13.479936 30.715904-30.212096L703.488 742.4v-51.2h44.032c83.982336 0 152.22272-67.39968 153.57952-151.06048L901.12 537.6v-389.12c0-84.831232-68.768768-153.6-153.6-153.6H276.48c-84.831232 0-153.6 68.768768-153.6 153.6V537.6c0 84.831232 68.768768 153.6 153.6 153.6l51.712 0.001024V742.4c0 16.966656 13.753344 30.72 30.72 30.72 16.796672 0 30.444544-13.479936 30.715904-30.212096l0.004096-0.507904v-51.198976L642.048 691.2v51.2c0 16.966656 13.753344 30.72 30.72 30.72zM328.192 629.761024L276.48 629.76c-50.898944 0-92.16-41.261056-92.16-92.16v-389.12c0-50.898944 41.261056-92.16 92.16-92.16h471.04c50.898944 0 92.16 41.261056 92.16 92.16V537.6c0 50.898944-41.261056 92.16-92.16 92.16h-44.032v-50.176c0-16.966656-13.753344-30.72-30.72-30.72-16.796672 0-30.444544 13.479936-30.715904 30.212096L642.048 579.584v50.176l-252.416 0.001024V579.584c0-16.966656-13.753344-30.72-30.72-30.72-16.796672 0-30.444544 13.479936-30.715904 30.212096L328.192 579.584v50.177024z m215.54176-165.0688l0.01024-0.820224v-286.72c0-16.966656-13.753344-30.72-30.72-30.72-16.796672 0-30.444544 13.479936-30.715904 30.212096L482.304 177.152V389.016576l-25.240576-25.572352c-11.798528-11.954176-30.980096-12.198912-43.07968-0.637952l-0.36352 0.354304c-11.954176 11.798528-12.198912 30.980096-0.637952 43.07968l0.354304 0.36352 77.824 78.848c19.100672 19.352576 51.918848 6.155264 52.573184-20.759552z"  horiz-adv-x="1024" />

    
    <glyph glyph-name="like" unicode="&#59070;" d="M512.503808 697.926656l-2.19136 1.718272c-96.478208 74.4192-235.380736 67.227648-323.643392-21.033984-94.90432-94.905344-96.075776-248.36096-2.842624-344.66816l2.75456-2.801664L490.78272 26.941439999999943c11.997184-11.997184 31.44704-11.997184 43.445248 0l304.287744 304.288768 2.66752 2.7136c93.233152 96.305152 92.06272 249.761792-2.843648 344.667136-88.261632 88.261632-227.16416 95.453184-323.642368 21.033984l-2.192384-1.718272z"  horiz-adv-x="1024" />

    
    <glyph glyph-name="unlike" unicode="&#59071;" d="M512.503808 697.926656l-2.19136 1.718272c-96.478208 74.4192-235.380736 67.227648-323.643392-21.033984-94.90432-94.905344-96.075776-248.36096-2.842624-344.66816l2.75456-2.801664L490.78272 26.941439999999943c11.997184-11.997184 31.44704-11.997184 43.445248 0l304.287744 304.288768 2.66752 2.7136c93.233152 96.305152 92.06272 249.761792-2.843648 344.667136-88.261632 88.261632-227.16416 95.453184-323.642368 21.033984l-2.192384-1.718272z m284.505088-64.909312c68.375552-70.6048 69.231616-182.55872 2.106368-254.159872l-2.03776-2.138112-2.359296-2.397184-282.2144-282.2144L230.22592 374.385664l-2.256896 2.292736c-69.910528 72.214528-69.031936 187.31008 2.14528 258.48832l2.148352 2.113536c70.6048 68.375552 182.55872 69.231616 254.159872 2.106368l2.139136-2.03776 2.39616-2.358272 0.361472-0.349184c11.977728-11.41248 30.89408-11.296768 42.73152 0.349184l2.3552 2.320384c72.215552 69.910528 187.311104 69.031936 258.48832-2.14528l2.11456-2.148352z"  horiz-adv-x="1024" />

    
    <glyph glyph-name="un-radio-button" unicode="&#59051;" d="M512 783.36c-220.560384 0-399.36-178.799616-399.36-399.36s178.799616-399.36 399.36-399.36 399.36 178.799616 399.36 399.36-178.799616 399.36-399.36 399.36z m0-61.44c186.628096 0 337.92-151.291904 337.92-337.92S698.628096 46.08000000000004 512 46.08000000000004 174.08 197.37190399999997 174.08 384s151.291904 337.92 337.92 337.92z"  horiz-adv-x="1024" />

    
    <glyph glyph-name="radio-button" unicode="&#59052;" d="M512 783.36c220.560384 0 399.36-178.799616 399.36-399.36S732.560384-15.360000000000014 512-15.360000000000014 112.64 163.439616 112.64 384s178.799616 399.36 399.36 399.36z m224.104448-256.887808c-12.025856 11.635712-31.208448 11.516928-43.0848-0.359424L454.07232 287.16748800000005 330.980352 410.26048l-0.361472 0.356352c-12.023808 11.638784-31.2064 11.52-43.082752-0.356352-11.997184-11.997184-11.997184-31.448064 0-43.445248l144.815104-144.815104 0.359424-0.3584c12.025856-11.63776 31.208448-11.518976 43.085824 0.3584l260.667392 260.667392 0.356352 0.362496c11.639808 12.022784 11.52 31.205376-0.356352 43.082752z"  horiz-adv-x="1024" />

    
    <glyph glyph-name="close" unicode="&#59053;" d="M801.631232 673.631232c11.99616-11.997184 11.99616-31.448064 0-43.445248L555.444224 384l246.187008-246.185984c11.99616-11.997184 11.99616-31.448064 0-43.445248-11.997184-11.99616-31.448064-11.99616-43.445248 0L512 340.55577600000004 265.814016 94.36876800000005c-11.997184-11.99616-31.448064-11.99616-43.445248 0-11.99616 11.997184-11.99616 31.448064 0 43.445248L468.554752 384 222.368768 630.185984c-11.99616 11.997184-11.99616 31.448064 0 43.445248 11.997184 11.99616 31.448064 11.99616 43.445248 0L512 427.444224l246.185984 246.187008c11.997184 11.99616 31.448064 11.99616 43.445248 0z"  horiz-adv-x="1024" />

    
    <glyph glyph-name="save" unicode="&#59054;" d="M798.72 762.88c50.390016 0 91.333632-40.440832 92.147712-90.636288L890.88 670.72v-573.44c0-50.390016-40.440832-91.333632-90.636288-92.147712L798.72 5.1200000000000045H225.28c-50.390016 0-91.333632 40.440832-92.147712 90.636288L133.12 97.27999999999997V670.72c0 50.390016 40.440832 91.333632 90.636288 92.147712L225.28 762.88h573.44z m-491.52-61.44h-81.92c-16.796672 0-30.444544-13.479936-30.72-30.212096V97.27999999999997c0-16.796672 13.479936-30.444544 30.212096-30.72H798.72c16.796672 0 30.444544 13.479936 30.72 30.212096V670.72c0 16.796672-13.479936 30.444544-30.212096 30.72H716.8v-92.16c0-50.390016-40.440832-91.333632-90.636288-92.147712L624.64 517.12H399.36c-50.390016 0-91.333632 40.440832-92.147712 90.636288L307.2 609.28v92.16z m378.88-448.512c16.966656 0 30.72-13.753344 30.72-30.72 0-16.796672-13.479936-30.444544-30.212096-30.715904L686.08 191.48800000000006H337.92c-16.966656 0-30.72 13.753344-30.72 30.72 0 16.796672 13.479936 30.444544 30.212096 30.715904L337.92 252.928h348.16z m0 139.264c16.966656 0 30.72-13.753344 30.72-30.72 0-16.796672-13.479936-30.444544-30.212096-30.715904L686.08 330.75199999999995H337.92c-16.966656 0-30.72 13.753344-30.72 30.72 0 16.796672 13.479936 30.444544 30.212096 30.715904L337.92 392.192h348.16z m-30.72 309.248H368.64v-92.16c0-16.628736 13.211648-30.171136 29.71136-30.703616l0.500736-0.012288 0.507904-0.004096h225.28c16.796672 0 30.444544 13.479936 30.715904 30.212096L655.36 609.28v92.16z"  horiz-adv-x="1024" />

    
    <glyph glyph-name="time" unicode="&#59055;" d="M512 783.36c220.560384 0 399.36-178.799616 399.36-399.36S732.560384-15.360000000000014 512-15.360000000000014 112.64 163.439616 112.64 384s178.799616 399.36 399.36 399.36z m0-61.44c-186.628096 0-337.92-151.291904-337.92-337.92s151.291904-337.92 337.92-337.92 337.92 151.291904 337.92 337.92-151.291904 337.92-337.92 337.92z m0-71.68c16.796672 0 30.444544-13.479936 30.715904-30.212096L542.72 619.52v-218.27584l208.510976-127.21152c14.339072-8.748032 18.9696-27.363328 10.486784-41.788416l-0.26112-0.4352c-8.748032-14.339072-27.363328-18.9696-41.788416-10.486784l-0.4352 0.26112-223.232 136.192a30.72 30.72 0 0 0-14.716928 25.73824L481.28 384V619.52c0 16.966656 13.753344 30.72 30.72 30.72z"  horiz-adv-x="1024" />

    
    <glyph glyph-name="back" unicode="&#59056;" d="M533.722112 682.1888c11.877376-11.8784 11.99616-31.059968 0.356352-43.082752l-0.356352-0.362496L309.69856 414.72h449.043456c16.966656 0 30.72-13.753344 30.72-30.72 0-16.796672-13.479936-30.444544-30.212096-30.715904l-0.507904-0.004096H310.627328l223.094784-223.09376c11.877376-11.8784 11.99616-31.059968 0.356352-43.082752l-0.356352-0.362496c-11.876352-11.876352-31.058944-11.995136-43.082752-0.356352l-0.361472 0.356352-276.001792 276.001792c-11.876352 11.876352-11.995136 31.058944-0.356352 43.081728l0.356352 0.362496 276.001792 276.000768c11.997184 11.997184 31.44704 11.997184 43.444224 0z"  horiz-adv-x="1024" />

    
    <glyph glyph-name="share" unicode="&#59057;" d="M562.574336 576.7536640000001l-4.237312-0.572416C301.074432 539.558912 103.04512 322.98496 93.20448 59.51897599999995c-1.08032-28.91264 34.758656-43.15136 53.814272-21.38112l3.319808 3.762176C254.823424 159.245312 401.763328 230.15423999999996 560.896 237.019136l1.682432 0.065536V104.44799999999998c0-27.368448 33.088512-41.074688 52.441088-21.722112l307.2 307.2c11.997184 11.997184 11.997184 31.44704 0 43.444224l-307.2 307.2c-19.351552 19.352576-52.441088 5.646336-52.442112-21.722112l-0.002048-142.094336z m61.441024 67.931136L857.05216 411.648 624.016384 178.613248l0.001024 89.636864c0 16.83456-13.54752 30.532608-30.38208 30.717952a657.811456 657.811456 0 0 1-7.248896 0.039936l-5.650432-0.024576c-154.334208-1.3312-299.59168-57.188352-413.411328-154.5728l-1.803264-1.554432 1.522688 6.68672c46.49984 197.53984 214.874112 348.793856 422.449152 368.47616l6.301696 0.557056c15.94368 1.302528 28.219392 14.621696 28.219392 30.6176l0.001024 95.491072z"  horiz-adv-x="1024" />

    
    <glyph glyph-name="delete" unicode="&#59058;" d="M573.44 762.88c50.898944 0 92.16-41.261056 92.16-92.16v-18.432h174.08c16.966656 0 30.72-13.753344 30.72-30.72 0-16.796672-13.479936-30.444544-30.212096-30.715904L839.68 590.848h-30.72v-493.568c0-50.390016-40.440832-91.333632-90.636288-92.147712L716.8 5.1200000000000045H307.2c-50.390016 0-91.333632 40.440832-92.147712 90.636288L215.04 97.27999999999997V590.848h-30.72c-16.966656 0-30.72 13.753344-30.72 30.72 0 16.796672 13.479936 30.444544 30.212096 30.715904L184.32 652.288h174.08v18.432c0 50.898944 41.261056 92.16 92.16 92.16h122.88z m174.08-172.032H276.48v-493.568c0-16.628736 13.211648-30.171136 29.71136-30.707712l0.500736-0.012288H716.8c16.796672 0 30.444544 13.479936 30.72 30.212096V590.848z m-112.64-83.968c16.796672 0 30.444544-13.479936 30.715904-30.212096L665.6 476.16v-294.912c0-16.966656-13.753344-30.72-30.72-30.72-16.796672 0-30.444544 13.479936-30.715904 30.212096L604.16 181.24800000000005V476.16c0 16.966656 13.753344 30.72 30.72 30.72z m-122.88 0c16.796672 0 30.444544-13.479936 30.715904-30.212096L542.72 476.16v-294.912c0-16.966656-13.753344-30.72-30.72-30.72-16.796672 0-30.444544 13.479936-30.715904 30.212096L481.28 181.24800000000005V476.16c0 16.966656 13.753344 30.72 30.72 30.72z m-122.88 0c16.796672 0 30.444544-13.479936 30.715904-30.212096L419.84 476.16v-294.912c0-16.966656-13.753344-30.72-30.72-30.72-16.796672 0-30.444544 13.479936-30.715904 30.212096L358.4 181.24800000000005V476.16c0 16.966656 13.753344 30.72 30.72 30.72z m184.32 194.56H450.56l-0.507904-0.004096C433.319936 701.164544 419.84 687.516672 419.84 670.72v-18.432h184.32v18.432c0 16.966656-13.753344 30.72-30.72 30.72z"  horiz-adv-x="1024" />

    
    <glyph glyph-name="add" unicode="&#59059;" d="M512 752.64c16.966656 0 30.72-13.753344 30.72-30.72v-307.2h307.2c16.966656 0 30.72-13.753344 30.72-30.72 0-16.966656-13.753344-30.72-30.72-30.72H542.718976L542.72 46.08000000000004c0-16.966656-13.753344-30.72-30.72-30.72-16.966656 0-30.72 13.753344-30.72 30.72l-0.001024 307.2H174.08c-16.966656 0-30.72 13.753344-30.72 30.72 0 16.966656 13.753344 30.72 30.72 30.72h307.2V721.92c0 16.966656 13.753344 30.72 30.72 30.72z"  horiz-adv-x="1024" />

    
    <glyph glyph-name="search" unicode="&#59060;" d="M229.245952 652.418048c119.968768 119.968768 314.477568 119.968768 434.446336 0 112.637952-112.637952 119.52128-290.981888 20.651008-411.650048l31.624192-31.62624c11.461632 0.151552 22.971392-4.1472 31.717376-12.89216l97.027072-97.027072c17.195008-17.195008 17.195008-45.074432 0-62.26944-17.196032-17.196032-45.075456-17.196032-62.270464 0l-97.027072 97.026048c-8.745984 8.74496-13.043712 20.255744-12.89216 31.7184l-31.625216 31.624192c-120.66816-98.871296-299.01312-91.987968-411.651072 20.649984-119.968768 119.968768-119.968768 314.477568 0 434.446336z m43.444224-43.444224c-95.9744-95.975424-95.9744-251.582464 0-347.557888 95.975424-95.975424 251.582464-95.975424 347.557888 0 95.975424 95.975424 95.975424 251.582464 0 347.557888-95.975424 95.9744-251.582464 95.9744-347.557888 0z"  horiz-adv-x="1024" />

    
    <glyph glyph-name="more" unicode="&#59061;" d="M512 160.76800000000003c28.276736 0 51.2-22.923264 51.2-51.2s-22.923264-51.2-51.2-51.2-51.2 22.923264-51.2 51.2 22.923264 51.2 51.2 51.2z m0 274.432c28.276736 0 51.2-22.923264 51.2-51.2s-22.923264-51.2-51.2-51.2-51.2 22.923264-51.2 51.2 22.923264 51.2 51.2 51.2z m0 274.432c28.276736 0 51.2-22.923264 51.2-51.2s-22.923264-51.2-51.2-51.2-51.2 22.923264-51.2 51.2 22.923264 51.2 51.2 51.2z"  horiz-adv-x="1024" />

    
    <glyph glyph-name="reload" unicode="&#59062;" d="M192.512 742.4c-16.796672 0-30.444544-13.479936-30.715904-30.212096L161.792 711.6800000000001v-184.32c0-16.796672 13.479936-30.444544 30.212096-30.715904L192.512 496.64h184.32c16.966656 0 30.72 13.753344 30.72 30.72 0 16.796672-13.479936 30.444544-30.212096 30.715904L376.832 558.0799999999999H271.372288C326.530048 634.27584 415.195136 680.96 512 680.96c164.006912 0 296.96-132.953088 296.96-296.96S676.006912 87.03999999999996 512 87.03999999999996c-162.366464 0-294.2976 130.308096-296.920064 292.048896L215.04 384c0 16.966656-13.753344 30.72-30.72 30.72-16.966656 0-30.72-13.753344-30.72-30.72 0-197.9392 160.4608-358.4 358.4-358.4s358.4 160.4608 358.4 358.4-160.4608 358.4-358.4 358.4c-115.862528 0-222.116864-55.45984-288.770048-146.06336L223.232 711.6800000000001c0 16.796672-13.479936 30.444544-30.212096 30.72H192.512z"  horiz-adv-x="1024" />

    
    <glyph glyph-name="arrow-top" unicode="&#59063;" d="M186.165248 228.13388799999996c11.877376-11.877376 31.058944-11.99616 43.082752-0.356352l0.361472 0.356352L512 510.523392l282.390528-282.389504c11.876352-11.877376 31.058944-11.99616 43.0848-0.359424l0.359424 0.3584c11.877376 11.8784 11.99616 31.059968 0.3584 43.085824l-0.3584 0.359424-304.11264 304.11264c-11.876352 11.877376-31.058944 11.99616-43.0848 0.3584l-0.359424-0.3584-304.11264-304.11264c-11.997184-11.997184-11.997184-31.44704 0-43.444224z"  horiz-adv-x="1024" />

    
    <glyph glyph-name="message" unicode="&#59064;" d="M564.736 36.86400000000003c16.966656 0 30.72-13.753344 30.72-30.72 0-16.966656-13.753344-30.72-30.72-30.72h-106.496c-16.966656 0-30.72 13.753344-30.72 30.72 0 16.966656 13.753344 30.72 30.72 30.72h106.496zM512 791.552c16.966656 0 30.72-13.753344 30.72-30.72l0.001024-19.899392c159.29344-15.297536 284.198912-148.320256 286.681088-311.032832L829.44 424.96v-172.588032l0.500736-0.118784c39.9872-9.864192 69.8624-45.403136 71.13728-88.126464l0.029696-1.297408 0.012288-1.549312c0-51.229696-41.1136-92.85632-92.146688-93.683712L807.424 67.58399999999995h-590.848c-51.746816 0-93.696 41.949184-93.696 93.696 0 43.544576 29.705216 80.151552 69.956608 90.662912l1.222656 0.310272 0.500736 0.119808V424.96c0 164.954112 125.816832 300.521472 286.72 315.972608V760.832c0 16.966656 13.753344 30.72 30.72 30.72z m0-110.592c-139.97056 0-253.705216-112.333824-255.966208-251.766784L256 424.96v-200.704c0-16.796672-13.479936-30.444544-30.212096-30.715904L225.28 193.53599999999994h-8.704c-17.814528 0-32.256-14.441472-32.256-32.256 0-17.636352 14.153728-31.967232 31.72352-32.256H807.424c17.814528 0 32.256 14.441472 32.256 32.256 0 17.636352-14.153728 31.967232-31.72352 32.251904l-0.53248 0.004096H798.72c-16.796672 0-30.444544 13.479936-30.715904 30.212096L768 224.25599999999997V424.96c0 141.384704-114.615296 256-256 256z"  horiz-adv-x="1024" />

    
    <glyph glyph-name="refresh" unicode="&#59065;" d="M831.488 742.4c16.796672 0 30.444544-13.479936 30.715904-30.212096L862.208 711.6800000000001v-184.32c0-16.796672-13.479936-30.444544-30.212096-30.715904L831.488 496.64H647.168c-16.966656 0-30.72 13.753344-30.72 30.72 0 16.796672 13.479936 30.444544 30.212096 30.715904L647.168 558.0799999999999h105.459712C697.469952 634.27584 608.804864 680.96 512 680.96c-164.006912 0-296.96-132.953088-296.96-296.96s132.953088-296.96 296.96-296.96c162.366464 0 294.2976 130.308096 296.920064 292.048896L808.96 384c0 16.966656 13.753344 30.72 30.72 30.72 16.966656 0 30.72-13.753344 30.72-30.72 0-197.9392-160.4608-358.4-358.4-358.4S153.6 186.06079999999997 153.6 384s160.4608 358.4 358.4 358.4c115.862528 0 222.116864-55.45984 288.770048-146.06336L800.768 711.6800000000001c0 16.796672 13.479936 30.444544 30.212096 30.72H831.488z"  horiz-adv-x="1024" />

    
    <glyph glyph-name="arrow-right" unicode="&#59066;" d="M359.205888 709.834752c-11.877376-11.877376-11.99616-31.058944-0.356352-43.082752l0.356352-0.361472L641.595392 384 359.205888 101.60947199999998c-11.877376-11.876352-11.99616-31.058944-0.359424-43.0848l0.3584-0.359424c11.8784-11.877376 31.059968-11.99616 43.085824-0.3584l0.359424 0.3584 304.11264 304.11264c11.877376 11.876352 11.99616 31.058944 0.3584 43.0848l-0.3584 0.359424-304.11264 304.11264c-11.997184 11.997184-31.44704 11.997184-43.444224 0z"  horiz-adv-x="1024" />

    
    <glyph glyph-name="comment" unicode="&#59067;" d="M512 750.592c-219.743232 0-399.36-157.913088-399.36-354.816l0.012288-2.77504c0.735232-85.040128 35.254272-165.08928 95.8464-227.93728l0.679936-0.700416-30.563328-107.149312-0.193536-0.708608c-6.099968-23.350272 16.04096-44.433408 39.18848-36.947968l145.219584 46.964736 0.1536-0.05632C409.931776 49.69471999999996 460.302336 40.960000000000036 512 40.960000000000036c219.743232 0 399.36 157.913088 399.36 354.816S731.743232 750.592 512 750.592z m0-61.44c187.445248 0 337.92-132.292608 337.92-293.376S699.445248 102.39999999999998 512 102.39999999999998c-48.002048 0-94.533632 8.69376-137.3696 25.28256l-0.521216 0.196608a30.72 30.72 0 0 1-20.025344 0.387072l-100.589568-32.530432 19.775488 69.327872a30.72 30.72 0 0 1-8.242176 30.563328l-0.34816 0.330752C206.682112 250.03929600000004 174.08 320.771072 174.08 395.776 174.08 556.8593920000001 324.554752 689.152 512 689.152z"  horiz-adv-x="1024" />

    
    <glyph glyph-name="arrow-down" unicode="&#59068;" d="M186.165248 539.8661119999999c11.877376 11.877376 31.058944 11.99616 43.082752 0.356352l0.361472-0.356352L512 257.47660800000006l282.390528 282.389504c11.876352 11.877376 31.058944 11.99616 43.0848 0.359424l0.359424-0.3584c11.877376-11.8784 11.99616-31.059968 0.3584-43.085824l-0.3584-0.359424-304.11264-304.11264c-11.876352-11.877376-31.058944-11.99616-43.0848-0.3584l-0.359424 0.3584-304.11264 304.11264c-11.997184 11.997184-11.997184 31.44704 0 43.444224z"  horiz-adv-x="1024" />

    
    <glyph glyph-name="write-pen" unicode="&#59069;" d="M857.088 84.86092799999994c16.966656 0 30.72-13.754368 30.72-30.72 0-16.796672-13.479936-30.444544-30.212096-30.715904l-0.507904-0.004096H145.408c-16.966656 0-30.72 13.753344-30.72 30.72 0 16.796672 13.479936 30.44352 30.212096 30.715904l0.507904 0.004096h711.68z m-201.00096 640.01024c18.202624 18.23232 47.624192 18.42688 66.06848 0.581632l0.556032-0.546816 0.160768-0.137216 0.321536-0.32768c0.036864-0.036864 0.073728-0.0768 0.113664-0.119808l0.17408-0.192512 102.790144-102.790144c18.00704-18.026496 18.37056-47.009792 1.074176-65.487872l-0.529408-0.557056-0.545792-0.556032-423.629824-423.877632a47.121408 47.121408 0 0 0-32.764928-13.805568h-0.605184l-119.77216 0.13312c-16.770048 0.019456-30.39232 13.473792-30.681088 30.179328l-0.00512 0.50688-0.13312 119.77728a47.104 47.104 0 0 0 13.362176 32.920576l0.423936 0.43008 423.622656 423.870464z m33.329152-53.56544L280.12544 261.77536l0.093184-83.181568 83.170304-0.09216 409.295872 409.535488-83.268608 83.268608z"  horiz-adv-x="1024" />

    


  </font>
</defs>
</svg>
